<?xml version="1.0" encoding="utf-8"?>
<!-- Generator: Adobe Illustrator 19.0.0, SVG Export Plug-In . SVG Version: 6.00 Build 0)  -->
<svg version="1.1" id="Layer_1" xmlns="http://www.w3.org/2000/svg" xmlns:xlink="http://www.w3.org/1999/xlink" x="0px" y="0px"
	 viewBox="0 0 368 73" style="enable-background:new 0 0 368 73;" xml:space="preserve">
<style type="text/css">
	.st0{clip-path:url(#XMLID_17_);}
	.st1{fill:url(#XMLID_19_);}
	.st2{fill:url(#XMLID_20_);}
	.st3{fill:url(#XMLID_21_);}
	.st4{fill:url(#XMLID_22_);}
	.st5{fill:url(#XMLID_23_);}
	.st6{fill:url(#XMLID_24_);}
	.st7{fill:url(#XMLID_25_);}
	.st8{fill:url(#XMLID_26_);}
	.st9{fill:url(#XMLID_27_);}
	.st10{fill:url(#XMLID_28_);}
	.st11{fill:url(#XMLID_29_);}
	.st12{fill:url(#XMLID_30_);}
	.st13{fill:url(#XMLID_31_);}
	.st14{fill:url(#XMLID_32_);}
	.st15{fill:url(#XMLID_33_);}
	.st16{fill:url(#XMLID_34_);}
	.st17{fill:url(#XMLID_35_);}
	.st18{fill:#0A0443;}
</style>
<g id="XMLID_14_">
	<defs>
		<rect id="XMLID_8_" y="0" width="368" height="73"/>
	</defs>
	<clipPath id="XMLID_17_">
		<use xlink:href="#XMLID_8_"  style="overflow:visible;"/>
	</clipPath>
	<g id="XMLID_16_" class="st0">
		<linearGradient id="XMLID_19_" gradientUnits="userSpaceOnUse" x1="58.7815" y1="36.2952" x2="15.1875" y2="36.2952">
			<stop  offset="0" style="stop-color:#0A0443"/>
			<stop  offset="0.1957" style="stop-color:#0D0649"/>
			<stop  offset="0.4574" style="stop-color:#140D5A"/>
			<stop  offset="0.7551" style="stop-color:#201776"/>
			<stop  offset="1" style="stop-color:#2C2292"/>
		</linearGradient>
		<path id="XMLID_18_" class="st1" d="M37.9,17.9c12,0.6,20.5,12.8,16.8,24.3c-2,6.3-7.3,11-13.7,12.5c-2,0.5-1.3,3.6,0.7,3.2
			C55.5,54.5,63,38.9,56.3,26.2c-6.6-12.5-24-15.4-34.3-5.6c-5.6,5.3-7.9,13.1-6.3,20.6c0.4,2,3.6,1.3,3.2-0.7
			C16.3,28.7,25.7,17.3,37.9,17.9z"/>
		<linearGradient id="XMLID_20_" gradientUnits="userSpaceOnUse" x1="51.5901" y1="36.1926" x2="22.2798" y2="36.1926">
			<stop  offset="0" style="stop-color:#0A0443"/>
			<stop  offset="0.1957" style="stop-color:#0D0649"/>
			<stop  offset="0.4574" style="stop-color:#140D5A"/>
			<stop  offset="0.7551" style="stop-color:#201776"/>
			<stop  offset="1" style="stop-color:#2C2292"/>
		</linearGradient>
		<path id="XMLID_88_" class="st2" d="M33.5,47.4c-4.4-1.5-7.6-5.3-8-9.9c-0.4-4.6,2.1-9.1,6.1-11.2c4.1-2.1,9.2-1.6,12.7,1.4
			c3.6,3,4.9,7.8,3.6,12.2c-0.6,2,2.5,3,3.1,1c2.7-9.1-3.8-18.7-13.4-19.1c-9.5-0.4-17.1,8.7-14.9,18c1.2,5.1,5,9,9.9,10.7
			C34.5,51.2,35.5,48.1,33.5,47.4z"/>
		<linearGradient id="XMLID_21_" gradientUnits="userSpaceOnUse" x1="72.9987" y1="37.1844" x2="0.3072" y2="37.1844">
			<stop  offset="0" style="stop-color:#0A0443"/>
			<stop  offset="0.1957" style="stop-color:#0D0649"/>
			<stop  offset="0.4574" style="stop-color:#140D5A"/>
			<stop  offset="0.7551" style="stop-color:#201776"/>
			<stop  offset="1" style="stop-color:#2C2292"/>
		</linearGradient>
		<path id="XMLID_91_" class="st3" d="M70.4,46.6c-0.4-0.1-0.8-0.1-1.2,0.1l-3.6-4.5l5-5.2c0.3,0.2,0.6,0.3,0.9,0.3
			c0.8,0,1.4-0.7,1.4-1.5c0-0.8-0.7-1.4-1.5-1.4c-0.5,0-0.9,0.3-1.1,0.6l-4.6-2.4l2.8-7.2c0.3,0.1,0.6,0.1,0.9-0.1
			c0.7-0.3,1.1-1.1,0.8-1.9c-0.3-0.7-1.1-1.1-1.9-0.8c-0.5,0.2-0.8,0.6-0.9,1.1l-5.4-0.2c0-0.5-0.1-0.9-0.4-1.3
			c-0.4-0.7-1-1.1-1.7-1.3l2-5.8c0.4,0.1,0.9,0,1.3-0.3c0.6-0.5,0.6-1.4,0.1-2c-0.5-0.6-1.4-0.6-2-0.1C61.2,13,61,13.3,61,13.6
			l-7.1-0.4l-0.8-5.3c0.4-0.1,0.7-0.3,0.9-0.7c0.4-0.7,0.1-1.6-0.6-1.9c-0.7-0.4-1.6-0.1-1.9,0.6c-0.2,0.3-0.2,0.6-0.1,0.9l-6.2,2
			l-3-4.8c0.3-0.2,0.5-0.5,0.5-0.9c0.1-0.8-0.5-1.5-1.2-1.6c-0.8-0.1-1.5,0.5-1.6,1.2c0,0.4,0,0.7,0.2,1l-4.5,3.9L30.3,4
			c0.1-0.3,0.2-0.6,0.1-1c-0.2-0.8-0.9-1.3-1.7-1.1c-0.8,0.2-1.3,0.9-1.1,1.7c0.1,0.4,0.3,0.7,0.6,0.9L26,9.7l-6.7-1.6
			c0-0.3,0-0.6-0.2-0.9c-0.4-0.7-1.3-0.9-2-0.4c-0.7,0.4-0.9,1.3-0.4,2c0.2,0.4,0.6,0.6,1,0.6l0,5.4l-7.4,1
			c-0.1-0.3-0.2-0.6-0.5-0.8c-0.6-0.5-1.5-0.4-2,0.3c-0.5,0.6-0.4,1.5,0.3,2c0.4,0.3,0.9,0.4,1.3,0.2l2.2,4.7l-7.1,3.8
			c-0.2-0.2-0.4-0.4-0.7-0.4c-0.8-0.2-1.6,0.2-1.8,0.9c-0.2,0.8,0.2,1.6,0.9,1.8c0.4,0.1,0.8,0.1,1.1-0.1l4.2,3.3l-5.6,6.3
			c-0.2-0.2-0.6-0.3-0.9-0.3c-0.8,0-1.4,0.7-1.4,1.5s0.7,1.4,1.5,1.4c0.6,0,1-0.4,1.2-0.8L9,41.4c0,0.3,0,0.6,0,0.9
			c0.3,1.5,1.8,2.4,3.3,2.1c1.5-0.3,2.4-1.8,2.1-3.3C14.1,39.9,13,39,11.7,39l-0.1-2.6c1.3-0.1,2.3-1.1,2.5-2.5
			c0.1-1.3-0.7-2.5-1.8-2.9l0.7-2.5c1.2,0.3,2.5-0.4,3.1-1.6c0.5-1.2,0.1-2.5-0.9-3.3l1.4-2.2c1.1,0.6,2.5,0.4,3.4-0.6
			c0.9-1,0.9-2.4,0.2-3.4l2-1.6c0.9,0.9,2.3,1.2,3.4,0.5c1.1-0.7,1.6-2,1.2-3.2l2.4-0.9c0.5,1.2,1.8,1.8,3.1,1.5
			c1.3-0.3,2.1-1.4,2.1-2.6l2.6-0.1c0.1,1.3,1.2,2.3,2.5,2.4c1.3,0.1,2.5-0.7,2.9-1.8l2.5,0.7c-0.3,1.2,0.4,2.5,1.6,3.1
			c1.2,0.5,2.5,0.1,3.3-0.9L52,16c-0.6,1.1-0.4,2.5,0.6,3.4c1,0.9,2.4,0.9,3.4,0.2l1.6,2c-0.9,0.9-1.2,2.3-0.5,3.4
			c0.7,1.1,2,1.6,3.2,1.2l0.9,2.4c-1.2,0.5-1.8,1.8-1.5,3.1c0.3,1.3,1.4,2.1,2.6,2.1l0.1,2.6c-1.3,0.1-2.3,1.2-2.4,2.5
			c-0.1,1.3,0.7,2.5,1.8,2.9l-0.7,2.5c-1.2-0.3-2.5,0.4-3.1,1.6c-0.5,1.2-0.1,2.5,0.9,3.3l-1.4,2.2C56.4,50.8,54.9,51,54,52
			c-0.9,1-0.9,2.4-0.2,3.4l-2,1.6c-0.9-0.9-2.3-1.2-3.4-0.5c-1.1,0.7-1.6,2-1.2,3.2l-2.4,0.9c-0.5-1.2-1.8-1.8-3.1-1.5
			c-1.5,0.3-2.4,1.8-2.1,3.3c0.3,1.4,1.7,2.3,3.1,2.1l1.2,5.7c-0.7,0.2-1.1,0.9-0.9,1.7c0.2,0.8,0.9,1.3,1.7,1.1
			c0.8-0.2,1.3-0.9,1.1-1.7c-0.1-0.4-0.3-0.7-0.6-0.9l2.9-6.2l6.1,2.4c-0.1,0.4,0,0.8,0.2,1.1c0.4,0.7,1.3,0.9,2,0.4
			c0.7-0.4,0.9-1.3,0.4-2c-0.2-0.4-0.6-0.6-1-0.6l0.3-6.1l7-0.4c0.1,0.3,0.2,0.6,0.5,0.9c0.6,0.5,1.5,0.4,2-0.3
			c0.5-0.6,0.4-1.5-0.3-2c-0.3-0.3-0.8-0.3-1.2-0.3l-1.9-5.5l6.6-3.1c0.2,0.3,0.4,0.5,0.8,0.6c0.8,0.2,1.6-0.2,1.8-0.9
			C71.6,47.6,71.2,46.8,70.4,46.6z M70.2,35.4c-0.1,0.2-0.1,0.4-0.1,0.6c0,0.3,0.1,0.6,0.3,0.8l-5,5.1l-0.7-0.8
			c0.3-0.4,0.6-0.9,0.6-1.5c0.1-1.1-0.4-2-1.3-2.6l1.5-4L70.2,35.4z M51.5,7c0.1,0.3,0.3,0.5,0.6,0.7c0.2,0.1,0.5,0.2,0.7,0.2
			l0.8,5.3l-3.2-0.2c0-1.1-0.6-2.1-1.7-2.5c-0.8-0.4-1.7-0.3-2.4,0.1l-1-1.5L51.5,7z M40.2,3.9c0.2,0.2,0.5,0.3,0.8,0.4
			c0.3,0,0.6,0,0.8-0.1l3,4.7l-2.5,0.8c-0.4-0.8-1.2-1.4-2.2-1.5C39.1,8,38.3,8.4,37.7,9l-2-1.3L40.2,3.9z M28.6,4.7
			c0.2,0.1,0.5,0.1,0.7,0c0.3-0.1,0.6-0.2,0.8-0.5l5,3.4l-1.7,1.4c-0.6-0.5-1.5-0.8-2.4-0.6c-1,0.2-1.8,1-2,1.9l-2.8-0.7L28.6,4.7z
			 M25.8,10.1l-0.7,1.5c-0.8-0.3-1.6-0.2-2.4,0.2c-0.9,0.5-1.4,1.6-1.3,2.6L18,14.8l0-5.3c0.2,0,0.4-0.1,0.6-0.2
			c0.3-0.2,0.5-0.4,0.6-0.7L25.8,10.1z M9.7,17.4c0.1-0.1,0.3-0.2,0.4-0.3c0.2-0.3,0.3-0.6,0.3-0.9l7.3-1l0,1.2
			c-0.7,0-1.4,0.4-1.9,0.9c-0.7,0.8-0.9,2-0.4,2.9l-3.5,1.8L9.7,17.4z M4.3,28c0.2-0.2,0.3-0.4,0.4-0.6c0.1-0.4,0.1-0.7-0.1-1.1
			l7.1-3.7l0.4,0.9c-0.5,0.3-1,0.7-1.2,1.3c-0.5,1.1-0.2,2.2,0.6,3l-3,3.4L4.3,28z M8.5,31.7l0.6,0.4c-0.2,0.4-0.4,0.8-0.5,1.3
			c0,0.5,0,0.9,0.2,1.3l-5.5,2.8L8.5,31.7z M11.3,39.1c-0.1,0-0.1,0-0.2,0c-1,0.2-1.8,1-2.1,2l-5.9-1.8c0-0.1,0-0.2,0-0.3
			c0-0.3-0.1-0.6-0.3-0.8L9,35.1c0.4,0.7,1.2,1.3,2.1,1.3c0.1,0,0.1,0,0.2,0L11.3,39.1z M11.9,31c-0.1,0-0.2,0-0.3-0.1
			c-0.9-0.1-1.8,0.3-2.3,0.9l-0.5-0.4l3-3.4c0.2,0.1,0.4,0.3,0.6,0.4c0.1,0,0.1,0,0.2,0.1L11.9,31z M14.8,23.5
			c-0.1,0-0.2-0.1-0.3-0.1c-0.7-0.3-1.4-0.3-2.1,0L12,22.4l3.5-1.9c0.1,0.2,0.3,0.4,0.5,0.6c0.1,0,0.1,0.1,0.2,0.1L14.8,23.5z
			 M19.7,17.1c-0.5-0.4-1.1-0.6-1.6-0.7l0-1.3l3.4-0.5c0.1,0.3,0.2,0.6,0.3,0.8c0,0.1,0.1,0.1,0.1,0.2l-2,1.6
			C19.8,17.2,19.8,17.2,19.7,17.1z M26.7,13c0-0.1-0.1-0.2-0.1-0.3c-0.3-0.5-0.6-0.8-1.1-1l0.7-1.5l2.9,0.7c0,0.3,0,0.7,0,1
			c0,0.1,0,0.1,0.1,0.2L26.7,13z M34.4,10.9c0-0.1,0-0.2,0-0.3c-0.1-0.5-0.3-0.9-0.7-1.2l1.7-1.5l2,1.4c-0.2,0.4-0.4,0.8-0.5,1.3
			c0,0.1,0,0.1,0,0.2L34.4,10.9z M42.5,11.4c0-0.1,0-0.2,0.1-0.3c0-0.4,0-0.8-0.1-1.2L45,9.1l1,1.6c-0.4,0.3-0.7,0.7-0.9,1.1
			c0,0.1,0,0.1-0.1,0.2L42.5,11.4z M50,14.3c0-0.1,0.1-0.2,0.1-0.3c0.1-0.2,0.2-0.5,0.2-0.8l3.3,0.2l0.2,1.2
			c-0.6,0.1-1.1,0.4-1.5,0.9c0,0.1-0.1,0.1-0.1,0.2L50,14.3z M56.2,15.3c-0.6-0.5-1.3-0.7-2-0.7L54,13.5l7,0.4
			c0,0.3,0.1,0.6,0.4,0.9c0.1,0.1,0.3,0.2,0.4,0.3l-2,5.9c-0.6-0.1-1.2,0-1.7,0.4c-0.1,0-0.1,0.1-0.2,0.1l-1.6-2
			c0.1-0.1,0.1-0.1,0.2-0.2C57.4,18.1,57.3,16.3,56.2,15.3z M60.5,26.2c0.1,0,0.2-0.1,0.3-0.1c0.8-0.5,1.2-1.2,1.3-2.1l5.4,0.2
			c0,0.1,0,0.3,0.1,0.4c0.1,0.3,0.4,0.6,0.7,0.7l-2.7,7.2l-0.6-0.3c0.2-0.5,0.2-1,0.1-1.5c-0.3-1.5-1.8-2.4-3.3-2.1
			c-0.1,0-0.1,0-0.2,0.1L60.5,26.2z M62.6,34c0.1,0,0.2,0,0.3,0c0.8-0.2,1.5-0.7,1.8-1.5l0.6,0.3l-1.5,4c-0.3-0.1-0.6-0.2-0.9-0.3
			c-0.1,0-0.1,0-0.2,0L62.6,34z M62.1,42c0.1,0,0.2,0,0.3,0.1c0.8,0.1,1.6-0.2,2.1-0.7l0.7,0.8l-2.8,2.9c-0.2-0.2-0.4-0.4-0.7-0.5
			c-0.1,0-0.1,0-0.2-0.1L62.1,42z M59.2,49.5c0.1,0,0.2,0.1,0.3,0.1c0.6,0.2,1.2,0.3,1.7,0.1l0.6,1.9l-3,1.5
			c-0.1-0.5-0.4-0.9-0.8-1.3c-0.1,0-0.1-0.1-0.2-0.1L59.2,49.5z M54.3,55.9c0.4,0.4,1,0.6,1.5,0.7l-0.1,2.5l-3.1,0.2
			c0.1-0.6,0-1.2-0.3-1.8c0-0.1-0.1-0.1-0.1-0.2l2-1.6C54.2,55.8,54.2,55.9,54.3,55.9z M44.7,70.2c-0.2-0.1-0.4-0.1-0.6-0.1L43,64.4
			c0.8-0.2,1.4-0.8,1.8-1.5l2.9,1.1L44.7,70.2z M47.8,63.7l-2.9-1.1c0.1-0.4,0.2-0.9,0.1-1.4c0-0.1,0-0.1-0.1-0.2l2.4-0.9
			c0,0.1,0.1,0.2,0.1,0.3c0.3,0.6,0.9,1,1.4,1.2L47.8,63.7z M48.1,63.9l1.1-2.3c0.7,0.1,1.4,0.1,2-0.3c0.6-0.4,1.1-1,1.3-1.6
			l3.2-0.2l-0.3,6c-0.2,0-0.5,0.1-0.7,0.2c-0.2,0.1-0.4,0.3-0.5,0.5L48.1,63.9z M63.8,57.4c-0.2,0.1-0.4,0.2-0.5,0.4
			c-0.2,0.2-0.3,0.5-0.3,0.8L56,59.1l0.1-2.4c0.7,0,1.5-0.3,2-0.9c0.6-0.6,0.8-1.4,0.6-2.2l3.1-1.5L63.8,57.4z M62.1,51.5l-0.6-1.8
			c0.7-0.3,1.3-0.8,1.6-1.5c0.4-1,0.2-2.1-0.5-2.9l2.8-2.9l3.6,4.5c-0.2,0.2-0.3,0.3-0.3,0.6c-0.1,0.3-0.1,0.6,0,0.9L62.1,51.5z"/>
		<linearGradient id="XMLID_22_" gradientUnits="userSpaceOnUse" x1="52.1123" y1="70.7356" x2="48.5675" y2="70.7356">
			<stop  offset="0" style="stop-color:#0A0443"/>
			<stop  offset="0.1957" style="stop-color:#0D0649"/>
			<stop  offset="0.4574" style="stop-color:#140D5A"/>
			<stop  offset="0.7551" style="stop-color:#201776"/>
			<stop  offset="1" style="stop-color:#2C2292"/>
		</linearGradient>
		<circle id="XMLID_143_" class="st4" cx="50.3" cy="70.7" r="1.8"/>
		<linearGradient id="XMLID_23_" gradientUnits="userSpaceOnUse" x1="62.5951" y1="64.2402" x2="59.0506" y2="64.2402">
			<stop  offset="0" style="stop-color:#0A0443"/>
			<stop  offset="0.1957" style="stop-color:#0D0649"/>
			<stop  offset="0.4574" style="stop-color:#140D5A"/>
			<stop  offset="0.7551" style="stop-color:#201776"/>
			<stop  offset="1" style="stop-color:#2C2292"/>
		</linearGradient>
		<circle id="XMLID_144_" class="st5" cx="60.8" cy="64.2" r="1.8"/>
		<linearGradient id="XMLID_24_" gradientUnits="userSpaceOnUse" x1="70.3121" y1="54.4816" x2="66.7678" y2="54.4816">
			<stop  offset="0" style="stop-color:#0A0443"/>
			<stop  offset="0.1957" style="stop-color:#0D0649"/>
			<stop  offset="0.4574" style="stop-color:#140D5A"/>
			<stop  offset="0.7551" style="stop-color:#201776"/>
			<stop  offset="1" style="stop-color:#2C2292"/>
		</linearGradient>
		<circle id="XMLID_145_" class="st6" cx="68.5" cy="54.5" r="1.8"/>
		<linearGradient id="XMLID_25_" gradientUnits="userSpaceOnUse" x1="74.2267" y1="42.5724" x2="70.6816" y2="42.5724">
			<stop  offset="0" style="stop-color:#0A0443"/>
			<stop  offset="0.1957" style="stop-color:#0D0649"/>
			<stop  offset="0.4574" style="stop-color:#140D5A"/>
			<stop  offset="0.7551" style="stop-color:#201776"/>
			<stop  offset="1" style="stop-color:#2C2292"/>
		</linearGradient>
		<circle id="XMLID_146_" class="st7" cx="72.5" cy="42.6" r="1.8"/>
		<linearGradient id="XMLID_26_" gradientUnits="userSpaceOnUse" x1="73.9108" y1="30.1532" x2="70.3666" y2="30.1532">
			<stop  offset="0" style="stop-color:#0A0443"/>
			<stop  offset="0.1957" style="stop-color:#0D0649"/>
			<stop  offset="0.4574" style="stop-color:#140D5A"/>
			<stop  offset="0.7551" style="stop-color:#201776"/>
			<stop  offset="1" style="stop-color:#2C2292"/>
		</linearGradient>
		<circle id="XMLID_147_" class="st8" cx="72.1" cy="30.2" r="1.8"/>
		<linearGradient id="XMLID_27_" gradientUnits="userSpaceOnUse" x1="68.8454" y1="18.4146" x2="65.3003" y2="18.4146">
			<stop  offset="0" style="stop-color:#0A0443"/>
			<stop  offset="0.1957" style="stop-color:#0D0649"/>
			<stop  offset="0.4574" style="stop-color:#140D5A"/>
			<stop  offset="0.7551" style="stop-color:#201776"/>
			<stop  offset="1" style="stop-color:#2C2292"/>
		</linearGradient>
		<circle id="XMLID_148_" class="st9" cx="67.1" cy="18.4" r="1.8"/>
		<linearGradient id="XMLID_28_" gradientUnits="userSpaceOnUse" x1="60.7616" y1="9.1529" x2="57.2174" y2="9.1529">
			<stop  offset="0" style="stop-color:#0A0443"/>
			<stop  offset="0.1957" style="stop-color:#0D0649"/>
			<stop  offset="0.4574" style="stop-color:#140D5A"/>
			<stop  offset="0.7551" style="stop-color:#201776"/>
			<stop  offset="1" style="stop-color:#2C2292"/>
		</linearGradient>
		<circle id="XMLID_149_" class="st10" cx="59" cy="9.2" r="1.8"/>
		<linearGradient id="XMLID_29_" gradientUnits="userSpaceOnUse" x1="49.146" y1="3.1044" x2="45.6011" y2="3.1044">
			<stop  offset="0" style="stop-color:#0A0443"/>
			<stop  offset="0.1957" style="stop-color:#0D0649"/>
			<stop  offset="0.4574" style="stop-color:#140D5A"/>
			<stop  offset="0.7551" style="stop-color:#201776"/>
			<stop  offset="1" style="stop-color:#2C2292"/>
		</linearGradient>
		<circle id="XMLID_150_" class="st11" cx="47.4" cy="3.1" r="1.8"/>
		<linearGradient id="XMLID_30_" gradientUnits="userSpaceOnUse" x1="37.1739" y1="1.7723" x2="33.6294" y2="1.7723">
			<stop  offset="0" style="stop-color:#0A0443"/>
			<stop  offset="0.1957" style="stop-color:#0D0649"/>
			<stop  offset="0.4574" style="stop-color:#140D5A"/>
			<stop  offset="0.7551" style="stop-color:#201776"/>
			<stop  offset="1" style="stop-color:#2C2292"/>
		</linearGradient>
		<circle id="XMLID_151_" class="st12" cx="35.4" cy="1.8" r="1.8"/>
		<linearGradient id="XMLID_31_" gradientUnits="userSpaceOnUse" x1="25.026" y1="4.6402" x2="21.4811" y2="4.6402">
			<stop  offset="0" style="stop-color:#0A0443"/>
			<stop  offset="0.1957" style="stop-color:#0D0649"/>
			<stop  offset="0.4574" style="stop-color:#140D5A"/>
			<stop  offset="0.7551" style="stop-color:#201776"/>
			<stop  offset="1" style="stop-color:#2C2292"/>
		</linearGradient>
		<circle id="XMLID_152_" class="st13" cx="23.3" cy="4.6" r="1.8"/>
		<linearGradient id="XMLID_32_" gradientUnits="userSpaceOnUse" x1="14.5112" y1="11.1854" x2="10.9666" y2="11.1854">
			<stop  offset="0" style="stop-color:#0A0443"/>
			<stop  offset="0.1957" style="stop-color:#0D0649"/>
			<stop  offset="0.4574" style="stop-color:#140D5A"/>
			<stop  offset="0.7551" style="stop-color:#201776"/>
			<stop  offset="1" style="stop-color:#2C2292"/>
		</linearGradient>
		<circle id="XMLID_153_" class="st14" cx="12.7" cy="11.2" r="1.8"/>
		<linearGradient id="XMLID_33_" gradientUnits="userSpaceOnUse" x1="7.3814" y1="21.0499" x2="3.8371" y2="21.0499">
			<stop  offset="0" style="stop-color:#0A0443"/>
			<stop  offset="0.1957" style="stop-color:#0D0649"/>
			<stop  offset="0.4574" style="stop-color:#140D5A"/>
			<stop  offset="0.7551" style="stop-color:#201776"/>
			<stop  offset="1" style="stop-color:#2C2292"/>
		</linearGradient>
		<circle id="XMLID_154_" class="st15" cx="5.6" cy="21" r="1.8"/>
		<linearGradient id="XMLID_34_" gradientUnits="userSpaceOnUse" x1="3.5451" y1="32.5478" x2="-1.818989e-012" y2="32.5478">
			<stop  offset="0" style="stop-color:#0A0443"/>
			<stop  offset="0.1957" style="stop-color:#0D0649"/>
			<stop  offset="0.4574" style="stop-color:#140D5A"/>
			<stop  offset="0.7551" style="stop-color:#201776"/>
			<stop  offset="1" style="stop-color:#2C2292"/>
		</linearGradient>
		<circle id="XMLID_155_" class="st16" cx="1.8" cy="32.5" r="1.8"/>
		<linearGradient id="XMLID_35_" gradientUnits="userSpaceOnUse" x1="41.1442" y1="36.4217" x2="33.2036" y2="36.4217">
			<stop  offset="0" style="stop-color:#0A0443"/>
			<stop  offset="0.1957" style="stop-color:#0D0649"/>
			<stop  offset="0.4574" style="stop-color:#140D5A"/>
			<stop  offset="0.7551" style="stop-color:#201776"/>
			<stop  offset="1" style="stop-color:#2C2292"/>
		</linearGradient>
		<path id="XMLID_156_" class="st17" d="M41.1,45l-1.6-10.1c1-0.7,1.6-1.8,1.6-3.1c0-2.2-1.7-3.9-3.9-3.9s-3.9,1.7-3.9,3.9
			c0,1.3,0.6,2.4,1.6,3.1L33.2,45H41.1z"/>
	</g>
	<g id="XMLID_1_" class="st0">
		<path id="XMLID_2_" class="st18" d="M102.2,8.5v57.1H91V8.5H102.2z"/>
		<path id="XMLID_4_" class="st18" d="M157.6,13.9l-5.8,7.6c-2.7-3.1-5.7-4.6-9-4.6c-2.3,0-4.3,0.6-5.9,1.8
			c-1.6,1.2-2.4,2.7-2.4,4.5c0,1.5,0.6,2.8,1.8,3.9c1.2,1,4.3,2.4,9.1,4.2c4.8,1.7,8.4,3.9,10.7,6.4c2.3,2.5,3.5,6.1,3.5,10.6
			c0,5.5-1.8,10-5.5,13.5c-3.7,3.5-8.4,5.2-14.2,5.2c-4.3,0-8-0.9-11.2-2.6c-3.2-1.7-6-4.5-8.6-8.3l7.2-6.9
			c2.6,5.1,6.7,7.6,12.2,7.6c2.5,0,4.6-0.8,6.2-2.3c1.6-1.5,2.4-3.4,2.4-5.8c0-2.5-0.7-4.2-2.2-5.1c-1.5-0.9-2.8-1.7-4-2.2
			c-1.2-0.5-3.7-1.5-7.3-2.7c-3.6-1.3-6.5-3.1-8.5-5.4c-2.1-2.3-3.1-5.4-3.1-9.4c0-4.7,1.7-8.6,5.1-11.7c3.4-3.1,7.6-4.7,12.7-4.7
			C147.1,7.6,152.7,9.7,157.6,13.9z"/>
		<path id="XMLID_6_" class="st18" d="M174.9,65.7l10.6-58.1h7.6l15.6,37.4l16.2-37.4h7.7l9.5,58.1h-11.2l-5.1-35.1l-15.7,35.9
			l-3.1,0l-15.1-35.9l-5.7,35.2H174.9z"/>
		<path id="XMLID_9_" class="st18" d="M294.7,53.7h-23.4l-5.1,12h-11.8l24.8-58.3h8.4l24,58.3h-11.9L294.7,53.7z M291.2,44.7
			l-8-20.6l-8.3,20.6H291.2z"/>
		<path id="XMLID_12_" class="st18" d="M368,10.8v13.1c-2.3-2.3-4.5-3.9-6.7-4.9c-2.2-1-4.6-1.5-7.2-1.5c-5.3,0-9.7,1.9-13.3,5.6
			s-5.4,8.4-5.4,13.9c0,5.8,1.8,10.5,5.4,14.1c3.6,3.7,8.2,5.5,13.8,5.5c2.5,0,4.8-0.5,6.9-1.4c2.1-1,4.3-2.5,6.5-4.7v13
			c-4.7,2.2-9.3,3.3-14,3.3c-8.5,0-15.7-2.9-21.5-8.6c-5.8-5.7-8.7-12.8-8.7-21.2c0-8.3,3-15.4,8.9-21.2c5.9-5.8,13.1-8.7,21.5-8.7
			C358.8,7.2,363.4,8.4,368,10.8z"/>
	</g>
</g>
</svg>
