<?xml version="1.0" standalone="no"?>
<!DOCTYPE svg PUBLIC "-//W3C//DTD SVG 20010904//EN"
 "http://www.w3.org/TR/2001/REC-SVG-20010904/DTD/svg10.dtd">
<svg version="1.0" xmlns="http://www.w3.org/2000/svg"
 width="2448.000000pt" height="2408.000000pt" viewBox="0 0 2448.000000 2408.000000"
 preserveAspectRatio="xMidYMid meet">
<metadata>
Created by potrace 1.16, written by Peter Selinger 2001-2019
</metadata>
<g transform="translate(0.000000,2408.000000) scale(0.100000,-0.100000)"
fill="#000000" stroke="none">
<path d="M11485 24052 c-189 -64 -330 -215 -380 -407 -19 -76 -19 -224 0 -299
36 -137 133 -271 248 -344 102 -64 167 -84 292 -90 191 -8 316 39 446 169 118
117 172 247 172 414 0 167 -54 298 -172 416 -123 122 -239 169 -421 169 -88 0
-118 -5 -185 -28z"/>
<path d="M15539 23640 c-136 -21 -248 -81 -344 -182 -108 -114 -159 -248 -157
-413 2 -264 181 -493 438 -560 76 -20 220 -19 298 1 200 51 369 220 421 420
19 75 19 223 0 299 -42 161 -164 311 -305 377 -117 55 -239 75 -351 58z"/>
<path d="M13458 23620 c-64 -16 -153 -67 -207 -117 -140 -132 -188 -343 -116
-515 15 -35 29 -70 32 -79 3 -12 -193 -186 -721 -637 -399 -342 -734 -627
-744 -633 -17 -10 -124 59 -854 556 l-836 568 20 56 c74 208 -6 439 -194 561
-83 54 -164 73 -284 68 -86 -3 -108 -8 -167 -36 -89 -41 -140 -82 -193 -154
-113 -154 -120 -377 -18 -540 26 -41 88 -107 123 -131 23 -15 23 -17 8 -54 -9
-21 -181 -403 -384 -849 l-368 -810 -1098 260 -1097 260 0 61 c-1 305 -297
526 -601 447 -136 -36 -243 -127 -308 -262 -35 -74 -36 -77 -36 -200 0 -123 1
-126 36 -200 20 -41 53 -94 73 -117 54 -62 145 -119 224 -139 l69 -18 7 -879
c4 -483 5 -881 3 -883 -3 -3 -537 -79 -1188 -169 -651 -90 -1197 -167 -1212
-170 -20 -3 -29 0 -33 13 -23 69 -74 149 -130 201 -96 91 -195 130 -324 131
-219 1 -401 -136 -464 -349 -20 -69 -21 -179 -1 -256 60 -228 297 -382 530
-345 37 6 72 7 76 3 10 -11 719 -1526 716 -1530 -2 -1 -528 -279 -1170 -618
l-1167 -616 -55 45 c-267 217 -652 112 -766 -210 -29 -82 -29 -226 0 -308 91
-256 360 -385 618 -296 l63 22 332 -258 c880 -682 1038 -805 1038 -809 0 -8
-1843 -2070 -1849 -2069 -3 0 -31 12 -61 26 -267 124 -566 -4 -661 -283 -18
-54 -20 -80 -17 -170 4 -97 8 -113 41 -184 143 -300 542 -366 774 -128 24 25
55 65 69 88 l25 43 157 -49 c86 -26 524 -162 972 -300 l815 -251 1 -122 c1
-134 16 -213 65 -334 92 -231 306 -432 542 -510 127 -43 221 -56 347 -49 417
23 747 301 847 715 26 108 21 304 -10 423 -44 167 -126 307 -248 425 -88 84
-144 123 -242 170 -104 49 -198 74 -305 81 l-92 6 0 66 c0 36 -7 226 -14 421
-8 195 -14 355 -13 355 1 1 43 9 92 19 339 67 612 331 697 673 28 112 30 313
5 415 -71 288 -262 521 -520 633 -37 16 -67 34 -67 40 1 5 50 188 109 405
l108 395 49 -5 c91 -9 259 -2 326 14 327 77 574 302 671 612 106 335 17 686
-236 935 l-75 74 220 335 c121 184 223 341 227 349 7 11 24 7 92 -22 140 -59
205 -71 369 -70 172 0 254 19 395 87 197 97 339 241 431 441 54 118 77 229 77
375 0 164 -25 271 -98 417 -30 59 -51 111 -47 114 4 4 151 122 326 263 l319
256 52 -50 c106 -99 250 -176 405 -216 59 -15 108 -19 225 -18 133 1 160 4
240 28 331 100 571 359 639 689 20 98 21 276 0 373 -8 42 -14 77 -12 79 8 6
780 296 783 293 1 -2 10 -19 20 -38 89 -176 268 -338 458 -416 123 -50 212
-66 357 -66 195 0 357 51 520 162 63 43 182 164 227 230 88 130 153 322 153
451 l0 49 46 0 c52 0 624 27 729 34 l71 5 16 -77 c73 -354 336 -621 696 -709
91 -22 303 -22 394 0 289 71 516 257 633 519 17 37 35 67 40 67 6 0 188 -48
405 -108 387 -105 395 -108 392 -132 -9 -86 -3 -282 12 -348 86 -386 396 -665
791 -712 172 -20 346 11 510 93 100 49 172 103 255 189 l65 68 345 -226 c190
-124 347 -227 349 -229 2 -1 -13 -40 -32 -86 -19 -46 -43 -119 -53 -163 -24
-105 -24 -302 0 -400 79 -328 301 -570 611 -668 231 -73 471 -52 692 59 84 42
110 51 120 41 6 -7 124 -153 262 -326 l251 -314 -49 -52 c-142 -150 -226 -353
-238 -575 -24 -458 297 -859 751 -939 87 -16 256 -13 342 5 42 8 77 14 79 12
15 -15 296 -783 288 -785 -26 -9 -130 -77 -188 -123 -140 -111 -263 -311 -305
-494 -20 -83 -22 -115 -18 -244 6 -160 27 -251 90 -377 97 -194 276 -356 480
-435 85 -33 208 -60 273 -60 l45 0 0 -42 c0 -24 9 -214 20 -423 10 -209 18
-380 17 -381 -1 0 -36 -8 -77 -16 -355 -75 -628 -345 -706 -701 -26 -115 -22
-300 9 -418 70 -267 264 -497 512 -605 36 -16 65 -32 65 -37 0 -17 -212 -792
-218 -798 -4 -4 -43 -2 -87 3 -96 12 -252 -3 -353 -33 -317 -97 -557 -357
-628 -680 -24 -110 -22 -292 5 -403 41 -172 129 -324 260 -450 l72 -68 -63
-97 c-82 -127 -389 -595 -394 -600 -1 -2 -40 13 -86 32 -126 54 -222 72 -368
71 -255 -1 -468 -89 -641 -264 -171 -173 -259 -388 -260 -635 -1 -174 31 -304
111 -453 33 -61 39 -78 28 -88 -7 -7 -154 -125 -327 -264 l-314 -251 -56 55
c-104 98 -242 172 -401 212 -99 25 -323 26 -423 1 -323 -80 -569 -316 -663
-634 -35 -120 -43 -301 -20 -427 10 -48 16 -90 14 -91 -14 -14 -783 -296 -785
-289 -2 6 -20 38 -40 72 -148 250 -401 411 -695 442 -162 17 -324 -11 -476
-81 -112 -51 -193 -111 -283 -207 -165 -176 -241 -375 -241 -627 1 -430 291
-787 716 -882 41 -9 121 -16 192 -16 l120 -1 118 -576 c64 -316 150 -736 190
-932 l73 -357 -56 -27 c-111 -54 -210 -173 -245 -293 -18 -61 -21 -184 -5
-250 27 -117 123 -244 226 -298 236 -125 502 -59 643 159 54 83 73 163 68 286
-3 91 -7 106 -42 178 -28 56 -57 97 -101 139 l-61 60 481 1005 c264 553 483
1005 486 1005 4 0 453 -173 999 -385 l992 -385 -6 -60 c-28 -289 190 -529 479
-527 132 0 226 37 323 126 265 246 165 699 -177 803 -31 9 -57 18 -59 19 -3 2
97 1986 101 1990 2 2 498 35 1103 73 604 39 1118 72 1141 74 43 5 43 4 54 -37
59 -222 302 -376 532 -338 250 42 426 266 403 514 -12 137 -85 268 -191 343
-91 66 -159 87 -279 90 l-100 1 -304 888 c-177 516 -301 891 -296 896 5 5 488
238 1073 519 l1064 509 34 -40 c241 -289 713 -197 823 161 22 70 26 187 9 260
-38 168 -188 313 -360 351 -85 19 -200 9 -283 -25 -39 -16 -71 -23 -75 -18 -3
5 -265 335 -581 732 -316 397 -576 726 -578 731 -3 9 1635 1690 1647 1690 3 0
36 -16 73 -34 188 -96 411 -56 555 98 91 97 133 199 133 326 0 132 -48 248
-140 340 -92 92 -208 140 -340 140 -128 0 -232 -44 -327 -135 l-63 -61 -742
394 c-409 217 -745 396 -747 398 -3 3 520 1377 861 2261 l40 103 71 -6 c321
-28 572 259 506 578 -39 190 -205 342 -402 371 -231 33 -454 -109 -522 -332
l-19 -63 -95 6 c-53 3 -411 17 -796 31 -385 14 -737 28 -782 31 l-83 6 0 33
c0 18 -7 70 -16 116 -60 319 -286 575 -600 683 l-62 21 279 800 c153 440 302
866 330 947 l51 146 91 0 c250 -1 437 159 477 406 38 236 -117 469 -353 532
-159 42 -340 -7 -458 -125 -60 -60 -92 -114 -118 -196 l-16 -50 -1154 66
c-634 37 -1157 71 -1161 76 -4 4 -62 388 -130 853 -67 465 -124 854 -126 865
-4 16 4 23 45 38 70 25 167 101 213 167 114 166 112 397 -6 558 -53 72 -104
113 -193 154 -60 29 -80 33 -173 36 -119 4 -196 -15 -282 -69 -140 -90 -230
-268 -215 -430 l5 -55 -1017 -323 c-559 -178 -1020 -324 -1024 -325 -5 -1
-231 350 -502 779 l-493 780 40 45 c114 128 152 288 110 451 -36 135 -127 244
-261 307 -68 33 -82 36 -180 38 -58 2 -123 -1 -143 -6z m-165 -850 c14 -11 56
-35 94 -53 65 -31 73 -32 188 -32 85 0 132 5 162 16 l42 16 483 -765 c266
-421 481 -768 478 -771 -3 -3 -183 -63 -400 -133 -360 -115 -396 -125 -408
-110 -7 10 -32 46 -55 82 -114 177 -324 322 -544 377 -106 26 -324 23 -432 -6
-153 -41 -288 -115 -404 -224 l-58 -54 -318 216 c-175 119 -318 217 -317 218
10 12 1453 1243 1457 1243 4 0 18 -9 32 -20z m-2533 -675 c443 -301 809 -551
813 -555 7 -6 -131 -129 -505 -448 -15 -13 -22 -11 -65 20 -101 72 -204 120
-333 155 -49 13 -102 17 -215 17 -134 -1 -160 -4 -239 -28 -284 -86 -493 -278
-601 -551 -15 -38 -28 -71 -30 -73 -3 -3 -887 207 -893 212 -2 3 166 380 375
840 372 821 378 835 403 828 14 -4 72 -7 130 -7 100 0 109 2 180 36 41 20 93
53 115 72 22 20 45 35 50 33 6 -2 372 -250 815 -551z m6225 -382 c31 -57 124
-147 185 -178 65 -33 141 -55 192 -55 26 0 38 -5 42 -17 11 -42 248 -1695 242
-1700 -5 -5 -913 43 -993 53 l-41 5 -7 62 c-36 337 -221 605 -511 744 -140 66
-224 85 -384 86 -153 1 -259 -19 -377 -73 -51 -23 -69 -28 -74 -18 -4 7 -75
119 -157 248 -82 129 -144 237 -138 239 12 5 1988 638 1996 640 3 1 14 -16 25
-36z m-4954 -483 c178 -121 324 -224 324 -228 -1 -4 -22 -50 -48 -102 -54
-109 -87 -228 -87 -311 0 -58 0 -58 -32 -63 -62 -9 -796 -39 -812 -33 -11 4
-16 18 -16 43 0 47 -53 204 -91 271 -16 29 -50 80 -75 114 -34 46 -43 64 -34
73 46 46 527 455 536 455 7 1 158 -98 335 -219z m-4571 -231 c564 -133 1028
-245 1031 -248 6 -5 -188 -441 -202 -456 -4 -3 -40 4 -80 16 -106 30 -307 37
-420 14 -354 -71 -630 -343 -705 -695 -8 -36 -17 -109 -20 -162 l-7 -97 -36
-5 c-228 -36 -1055 -146 -1060 -141 -3 4 -7 397 -9 874 l-3 868 42 7 c117 19
255 123 314 237 l29 56 50 -13 c28 -7 512 -121 1076 -255z m7521 -187 c86
-136 159 -252 163 -259 4 -7 -28 -45 -80 -95 -95 -91 -173 -202 -206 -290 -11
-32 -26 -58 -32 -58 -6 1 -189 50 -406 109 -385 106 -395 109 -392 132 2 13 4
85 4 159 0 106 -4 151 -20 210 -11 41 -18 77 -16 79 6 6 798 259 814 260 9 1
76 -96 171 -247z m-5900 -197 c244 -58 451 -108 459 -110 12 -4 15 -29 16
-137 0 -96 5 -149 18 -192 9 -32 16 -59 14 -61 -6 -6 -775 -295 -785 -295 -6
0 -14 11 -17 24 -21 83 -194 277 -314 351 -34 21 -62 39 -62 40 0 1 39 87 86
191 47 104 97 213 110 242 12 28 25 52 27 52 3 0 204 -47 448 -105z m8109
-961 c261 -15 477 -28 479 -30 3 -3 60 -361 61 -385 0 -4 -17 -10 -37 -14 -65
-12 -179 -61 -259 -110 -74 -47 -201 -161 -222 -199 -9 -18 -28 -8 -228 124
-121 79 -280 183 -355 232 l-137 89 33 64 c27 54 45 117 71 243 5 23 8 24 62
18 31 -3 271 -18 532 -32z m1797 -105 c568 -32 1050 -59 1072 -59 l38 0 13
-62 c24 -125 117 -261 215 -313 24 -14 33 -25 29 -35 -3 -8 -149 -427 -324
-930 -175 -503 -324 -928 -329 -945 l-11 -30 -118 -1 c-168 -2 -352 -53 -452
-125 -41 -30 -43 -30 -60 -12 -22 22 -493 613 -504 631 -5 8 8 28 36 55 96 93
182 252 220 404 30 123 30 313 0 436 -41 163 -123 309 -241 428 -164 163 -361
249 -609 265 -93 6 -103 9 -107 28 -8 34 -45 295 -45 317 0 19 5 19 73 14 39
-3 537 -33 1104 -66z m-11886 -381 c23 -83 62 -172 94 -214 14 -18 25 -35 25
-38 0 -9 -649 -526 -660 -526 -5 0 -16 10 -25 23 -22 34 -141 121 -220 161
-90 45 -176 72 -275 87 l-80 12 0 207 0 207 378 52 c207 29 447 63 532 76 218
33 209 34 231 -47z m-1271 -297 l0 -198 -68 -7 c-93 -9 -246 -64 -344 -122
-135 -81 -268 -226 -340 -369 -107 -211 -123 -504 -39 -724 l19 -52 -21 -13
c-34 -21 -1100 -581 -1112 -584 -5 -1 -171 342 -369 764 -316 674 -357 768
-342 776 98 55 196 227 196 343 0 25 1 45 3 46 3 1 2390 337 2405 338 9 1 12
-45 12 -198z m-678 -1634 c37 -58 129 -159 162 -176 15 -8 24 -21 22 -28 -3
-7 -107 -168 -231 -357 l-226 -344 -66 34 c-110 55 -225 78 -383 77 -128 -1
-169 -7 -305 -47 -18 -5 -28 12 -86 137 l-66 143 571 302 c314 165 573 301
576 302 3 0 17 -19 32 -43z m-1274 -669 c11 -24 40 -87 65 -140 l46 -97 -67
-43 c-336 -219 -481 -651 -351 -1043 36 -107 72 -175 145 -271 30 -39 54 -74
54 -78 0 -12 -983 -1107 -991 -1104 -6 2 -1238 953 -1333 1029 -20 17 -20 17
16 57 96 106 132 277 92 427 -9 33 -17 66 -18 72 -1 10 2293 1231 2316 1233 4
0 16 -19 26 -42z m17532 -433 c388 -14 737 -28 776 -31 l72 -5 6 -49 c14 -103
94 -220 209 -305 l27 -20 -445 -1160 c-245 -638 -448 -1166 -450 -1173 -4 -10
-32 1 -104 38 l-98 52 18 71 c58 220 23 479 -92 684 -59 105 -214 260 -324
325 -94 56 -232 103 -341 119 -96 14 -260 6 -332 -16 -30 -9 -55 -15 -57 -13
-5 6 -295 779 -295 787 0 5 10 11 23 15 42 10 151 88 225 160 143 138 232 312
267 520 l6 38 102 -6 c56 -3 419 -17 807 -31z m-17454 -1375 c42 -28 99 -58
125 -67 27 -10 49 -22 49 -28 0 -5 -49 -188 -109 -405 l-108 -395 -29 3 c-99
10 -285 4 -348 -12 -160 -38 -324 -127 -425 -230 l-54 -54 -83 65 -83 66 32
38 c43 52 951 1069 954 1069 1 0 37 -23 79 -50z m-1070 -1222 c44 -33 80 -62
82 -64 2 -1 -19 -49 -47 -106 -74 -149 -94 -233 -94 -398 0 -117 3 -148 27
-230 15 -52 28 -103 29 -113 2 -14 -174 -107 -883 -464 l-885 -447 89 100
c1040 1167 1592 1784 1597 1784 4 0 42 -28 85 -62z m18662 -283 c1 -1 -110
-296 -248 -655 -137 -359 -250 -654 -250 -656 0 -1 -20 6 -45 17 -69 31 -192
59 -256 59 l-58 0 -5 53 c-6 59 -36 699 -36 765 l0 42 39 0 c54 0 192 44 271
87 146 78 251 177 344 321 l48 73 96 -52 c53 -28 98 -53 100 -54z m955 -505
c433 -229 646 -347 643 -356 -3 -7 -10 -41 -16 -75 -20 -107 6 -236 65 -329
l27 -43 -119 -121 c-100 -101 -363 -370 -1468 -1505 l-52 -53 -106 133 -105
132 35 46 c50 66 120 213 145 306 30 114 31 346 0 456 -26 98 -70 193 -126
278 -51 76 -159 189 -217 228 -22 14 -39 30 -39 36 0 9 445 1176 486 1275 l14
34 92 -49 c51 -28 385 -204 741 -393z m-19513 -312 c49 -72 153 -176 229 -227
125 -85 298 -148 423 -154 l57 -2 5 -50 c6 -54 26 -643 26 -740 l0 -61 -62
-11 c-202 -35 -426 -184 -549 -365 -47 -69 -116 -211 -125 -257 -4 -17 -11
-31 -16 -31 -5 0 -439 133 -964 295 -525 162 -957 295 -959 295 -3 0 -5 38 -5
85 0 91 -20 171 -62 241 -12 21 -18 39 -13 41 6 2 449 226 985 498 536 271
980 494 985 494 6 0 26 -23 45 -51z m18398 -2138 l100 -125 -111 -115 c-62
-63 -269 -276 -461 -472 l-349 -357 -56 44 c-65 49 -173 110 -213 119 -16 4
-28 10 -28 14 0 13 217 802 222 807 2 3 41 -1 85 -7 205 -30 497 56 655 193
24 20 46 34 50 31 3 -4 51 -63 106 -132z m772 -971 l576 -724 -38 -50 c-64
-84 -82 -143 -83 -270 0 -60 2 -121 5 -134 5 -23 -39 -46 -1055 -532 -583
-280 -1064 -507 -1069 -506 -5 2 -53 132 -107 289 l-98 287 65 30 c137 64 280
184 364 305 49 72 108 203 130 291 67 263 11 553 -150 771 l-38 50 451 463
c247 254 455 460 460 458 6 -2 270 -329 587 -728z m-2416 -1669 c98 -23 237
-30 351 -17 l71 8 104 -303 c57 -166 99 -303 94 -305 -5 -2 -228 -108 -495
-237 l-487 -233 -12 39 c-18 63 -92 199 -143 265 -26 34 -74 85 -107 115 l-59
53 231 351 230 351 66 -33 c36 -18 106 -43 156 -54z m976 -1627 c210 -610 301
-888 292 -891 -32 -10 -118 -86 -156 -137 -42 -55 -79 -143 -91 -215 l-6 -36
-1131 -72 c-622 -40 -1133 -70 -1136 -67 -6 5 26 736 34 773 4 19 11 22 50 22
24 0 80 7 122 16 361 74 634 353 703 717 6 34 12 115 13 181 l1 119 495 238
c272 131 498 238 501 238 3 1 142 -398 309 -886z m-2830 -389 c100 -102 269
-188 432 -221 l78 -16 -5 -46 c-3 -25 -12 -206 -21 -401 -9 -195 -17 -356 -18
-357 -3 -3 -934 -63 -981 -63 l-40 0 -1 128 c0 98 -6 146 -23 211 -22 85 -71
199 -110 257 l-21 32 326 261 c180 143 329 261 333 261 3 0 26 -21 51 -46z
m456 -1271 c-4 -54 -24 -462 -46 -908 -22 -445 -42 -847 -46 -892 l-6 -82 -56
-11 c-135 -28 -224 -91 -319 -229 -6 -9 -1983 765 -1981 776 2 6 79 171 172
366 l169 355 148 -6 c237 -8 388 32 564 151 155 105 292 284 345 452 7 22 17
45 22 50 7 8 827 69 997 74 l43 1 -6 -97z m-2719 -161 c68 -148 240 -309 416
-387 36 -17 65 -33 64 -36 -1 -4 -78 -167 -172 -363 -144 -302 -173 -356 -189
-352 -10 3 -225 85 -478 183 -455 176 -459 178 -452 203 41 161 42 328 3 489
-3 11 98 54 381 162 212 81 390 148 395 148 6 1 20 -21 32 -47z m-397 -1081
c254 -99 464 -182 467 -184 3 -3 -211 -457 -476 -1009 -319 -666 -484 -1002
-493 -999 -7 2 -47 6 -88 8 l-75 5 -191 936 -190 936 63 22 c193 68 370 215
477 399 21 36 40 65 41 65 2 0 211 -81 465 -179z"/>
<path d="M7540 23124 c-367 -79 -565 -491 -400 -832 67 -139 182 -241 338
-300 59 -23 82 -26 192 -26 110 0 133 3 192 26 153 58 267 158 332 290 116
235 73 502 -109 683 -144 145 -343 203 -545 159z"/>
<path d="M19303 21631 c-166 -45 -300 -154 -376 -307 -39 -77 -57 -162 -57
-265 0 -165 48 -285 163 -406 157 -165 392 -222 613 -148 186 63 330 215 378
401 20 79 21 232 1 308 -24 92 -83 194 -151 262 -113 113 -230 164 -394 170
-82 3 -120 0 -177 -15z"/>
<path d="M4085 20970 c-288 -58 -492 -326 -471 -618 11 -153 68 -275 175 -382
229 -226 598 -224 827 4 182 182 226 449 112 685 -45 92 -169 215 -261 259
-117 56 -262 76 -382 52z"/>
<path d="M11830 19213 c-1464 -65 -2839 -551 -3973 -1404 -491 -370 -967 -840
-1348 -1334 -1193 -1542 -1711 -3543 -1429 -5517 45 -312 91 -531 128 -608 83
-174 245 -270 452 -270 166 0 299 52 413 159 127 120 176 274 143 456 -87 487
-111 680 -128 1038 -38 782 97 1630 378 2384 91 245 153 388 275 633 708 1422
1920 2520 3381 3064 1029 383 2157 471 3253 255 731 -144 1474 -450 2110 -867
1429 -937 2426 -2429 2739 -4102 72 -382 99 -684 99 -1095 0 -521 -50 -934
-174 -1435 -162 -654 -452 -1313 -828 -1880 -529 -800 -1246 -1469 -2101
-1959 -163 -94 -529 -274 -700 -344 -296 -122 -576 -215 -880 -293 -96 -25
-204 -59 -240 -76 -81 -39 -175 -132 -213 -210 -107 -223 -57 -513 118 -677
127 -118 271 -155 461 -116 229 48 704 196 994 310 484 191 972 449 1405 743
1693 1147 2850 2991 3149 5017 60 406 81 742 73 1175 -8 425 -41 767 -113
1158 -208 1127 -712 2223 -1437 3127 -277 345 -663 734 -1010 1018 -1206 989
-2707 1562 -4312 1647 -172 9 -519 11 -685 3z"/>
<path d="M22034 18590 c-275 -42 -480 -265 -500 -544 -21 -281 170 -543 446
-612 89 -22 251 -15 339 16 395 139 519 643 236 958 -121 135 -339 211 -521
182z"/>
<path d="M1756 17719 c-132 -22 -233 -74 -327 -169 -231 -233 -224 -611 16
-839 114 -108 245 -161 400 -161 170 0 300 53 416 169 151 151 208 339 164
546 -64 302 -363 506 -669 454z"/>
<path d="M11896 16890 c-837 -59 -1626 -327 -2334 -793 -702 -463 -1302 -1139
-1692 -1903 -689 -1352 -702 -2911 -35 -4269 472 -962 1251 -1737 2243 -2234
171 -86 408 -186 587 -248 263 -91 438 -64 591 92 106 108 164 255 164 415 0
146 -39 254 -128 351 -67 72 -133 110 -293 168 -1388 499 -2362 1677 -2554
3088 -97 718 28 1460 360 2138 490 1000 1390 1736 2451 2004 651 164 1329 154
1984 -30 1002 -282 1843 -976 2308 -1905 376 -751 494 -1595 342 -2443 -11
-60 -42 -198 -70 -307 -52 -206 -59 -270 -39 -366 39 -187 207 -351 414 -403
132 -33 303 -14 407 48 62 36 141 124 177 196 77 152 180 639 223 1051 20 192
17 726 -5 930 -125 1149 -605 2182 -1390 2987 -376 385 -767 676 -1233 915
-548 281 -1095 443 -1704 503 -190 19 -600 27 -774 15z"/>
<path d="M12125 14889 c-504 -51 -937 -401 -1093 -884 -47 -146 -57 -214 -57
-405 0 -182 7 -229 51 -378 35 -118 85 -221 160 -334 61 -92 186 -230 265
-294 l36 -29 -268 -1640 c-148 -902 -268 -1650 -269 -1662 l0 -23 1310 0
c1293 0 1310 0 1310 20 0 10 -119 752 -265 1647 -146 895 -266 1635 -267 1643
-2 9 31 45 72 81 284 247 440 593 440 975 0 351 -131 667 -379 914 -275 274
-656 408 -1046 369z"/>
<path d="M23636 14705 c-97 -27 -178 -75 -257 -154 -122 -122 -173 -244 -173
-416 0 -172 51 -294 173 -416 120 -120 239 -169 411 -169 115 0 188 18 284 68
186 97 306 299 306 517 0 268 -180 503 -436 570 -72 18 -240 19 -308 0z"/>
<path d="M403 13906 c-184 -60 -321 -197 -378 -378 -35 -111 -35 -255 0 -365
60 -189 216 -337 410 -388 76 -19 224 -19 300 0 204 53 367 216 420 420 19 76
19 224 0 300 -51 194 -199 350 -388 410 -108 34 -259 35 -364 1z"/>
<path d="M23770 10615 c-218 -49 -391 -218 -446 -435 -22 -88 -15 -252 14
-334 83 -229 283 -380 523 -394 270 -15 508 144 593 400 22 64 26 95 26 185 0
120 -14 181 -60 274 -66 130 -188 236 -329 285 -93 32 -227 40 -321 19z"/>
<path d="M22451 6680 c-161 -43 -296 -153 -369 -298 -52 -105 -65 -170 -60
-301 7 -164 56 -275 173 -392 99 -99 268 -169 410 -169 142 0 312 70 411 168
116 116 165 229 172 393 5 131 -8 196 -60 301 -68 135 -177 231 -327 286 -94
34 -248 40 -350 12z"/>
<path d="M19910 3464 c-254 -67 -440 -307 -440 -569 0 -136 56 -288 142 -388
61 -72 168 -143 262 -174 115 -37 257 -37 372 0 147 49 271 155 339 292 169
339 -16 747 -380 840 -74 19 -222 18 -295 -1z"/>
<path d="M16452 1320 c-106 -28 -187 -75 -267 -155 -117 -117 -170 -251 -169
-425 5 -373 343 -642 709 -565 117 25 207 75 294 163 119 119 171 246 171 412
0 170 -52 294 -174 415 -156 155 -355 210 -564 155z"/>
</g>
</svg>
